<?xml version="1.0" encoding="utf-8"?>
<!-- Generator: Adobe Illustrator 25.2.3, SVG Export Plug-In . SVG Version: 6.00 Build 0)  -->
<svg version="1.1" id="Layer_1" xmlns="http://www.w3.org/2000/svg" xmlns:xlink="http://www.w3.org/1999/xlink" x="0px" y="0px"
	 viewBox="0 0 500 500" style="enable-background:new 0 0 500 500;" xml:space="preserve">
<style type="text/css">
	.st0{fill:#08BFA9;}
	.st1{fill:#FFFFFF;}
</style>
<rect y="0" class="st0" width="500" height="500"/>
<g>
	<g>
		<path class="st1" d="M246.7,331.5H131.8v-35.4h25v10.4h89.8c20.3,0,36.8-16.5,36.8-36.8S266.9,233,246.7,233h-59.1l-19,0.3
			c-34.1,0-61.8-27.7-61.8-61.8s27.7-61.8,61.8-61.8h67.8V97.3h25v37.4h-92.8c-20.3,0-36.8,16.5-36.8,36.8s16.5,36.8,36.8,36.8h59.1
			l19-0.3c34.1,0,61.8,27.7,61.8,61.8S280.7,331.5,246.7,331.5z"/>
	</g>
	<g>
		<polygon class="st1" points="379.2,402.7 343,402.7 343,184 332.4,184 332.4,159 368,159 368,377.7 379.2,377.7 		"/>
	</g>
</g>
</svg>
